<?xml version="1.0" standalone="no"?>
<!DOCTYPE svg PUBLIC "-//W3C//DTD SVG 20010904//EN"
 "http://www.w3.org/TR/2001/REC-SVG-20010904/DTD/svg10.dtd">
<svg version="1.0" xmlns="http://www.w3.org/2000/svg"
 width="207.000000pt" height="216.000000pt" viewBox="0 0 207.000000 216.000000"
 preserveAspectRatio="xMidYMid meet">

<g 
transform="translate(0.000000,216.000000) scale(0.100000,-0.100000)"
fill="#000000" stroke="none"
>
<path d="M999 1953 c-8 -16 -34 -62 -58 -103 -24 -41 -53 -91 -64 -110 -10
-19 -88 -154 -172 -300 -84 -146 -162 -282 -174 -302 -11 -21 -29 -53 -40 -70
-62 -109 -96 -168 -119 -208 -13 -25 -47 -83 -75 -130 -78 -132 -88 -152 -79
-148 11 4 51 51 257 298 99 118 184 220 190 226 5 6 87 104 180 217 94 113
176 206 183 206 7 1 17 -11 22 -25 6 -14 21 -49 34 -77 13 -29 33 -74 46 -102
12 -27 33 -75 47 -105 14 -30 45 -100 70 -155 24 -55 52 -118 63 -140 32 -66
90 -196 90 -201 0 -2 14 -32 30 -66 17 -34 30 -67 30 -74 0 -6 -15 -15 -32
-18 -30 -7 -362 -64 -500 -87 -32 -5 -86 -14 -120 -20 -113 -19 -151 -26 -313
-53 -87 -15 -161 -29 -164 -31 -2 -3 363 -5 813 -5 l816 0 -19 39 c-11 21 -51
92 -89 157 -38 66 -80 139 -94 164 -14 25 -45 79 -70 120 -24 41 -58 100 -75
130 -17 30 -47 84 -68 120 -21 36 -47 81 -58 100 -11 19 -31 55 -45 79 -14 25
-38 68 -55 95 -16 28 -39 67 -49 86 -140 249 -302 520 -312 520 -7 0 -19 -12
-27 -27z"/>


</g>
</svg>
